<svg width="468" height="320" viewBox="0 0 468 320" fill="none" xmlns="http://www.w3.org/2000/svg">
<g clip-path="url(#clip0_209_313)">
<path d="M17.4282 35.0067C20.4552 34.4176 23.8033 34.6094 27.4756 35.5788C31.1436 36.5482 34.0938 38.1622 36.3337 40.4185L138.806 146.341L122.453 148.845L179.793 12.5577C182.764 5.92408 187.502 1.97608 193.993 0.716892C199.186 -0.291946 204.194 0.644452 209.023 3.51756C213.846 6.39707 216.829 10.7488 217.967 16.5835L254.506 204.279C255.602 209.901 254.675 214.958 251.735 219.452C248.789 223.95 244.288 226.785 238.234 227.96C232.174 229.136 226.88 228.204 222.362 225.156C217.838 222.113 215.029 217.78 213.936 212.156L184.21 59.4735L197.438 59.9326L150.851 173.609C149.368 176.368 147.332 178.891 144.747 181.186C142.164 183.485 139.335 184.819 136.264 185.187C133.491 185.953 130.479 185.755 127.221 184.589C123.964 183.429 121.129 181.851 118.719 179.848L37.668 93.987L42.761 75.1675L74.6939 239.199C75.7871 244.821 74.9691 249.858 72.246 254.309C69.5187 258.766 65.3419 261.537 59.7199 262.63C54.308 263.681 49.5019 262.653 45.308 259.543C41.1078 256.437 38.4626 252.071 37.3693 246.45L0.829791 58.7512C-0.221875 53.3523 0.871389 48.3145 4.12131 43.6463C7.36484 38.9782 11.7976 36.0987 17.4282 35.0067Z" fill="#8A2BE2"/>
<path d="M464.767 43.6815C461.521 39.0144 457.089 36.1349 451.459 35.0419C448.43 34.4539 445.082 34.6446 441.41 35.614C437.743 36.5834 434.791 38.1984 432.552 40.4537L340.743 135.355L289.093 12.594C286.123 5.96033 281.385 2.01233 274.893 0.752082C269.7 -0.255691 264.692 0.679642 259.863 3.55275C255.041 6.43332 252.057 10.784 250.919 16.6197L242.435 60.2075L263.483 168.362L280.354 81.701L318.035 173.644C319.519 176.404 321.554 178.928 324.139 181.222C326.723 183.521 329.551 184.854 332.622 185.225C335.395 185.99 338.407 185.79 341.666 184.625C344.924 183.466 347.757 181.887 350.167 179.884L420.185 105.712L394.191 239.235C393.098 244.858 393.916 249.896 396.639 254.347C399.366 258.803 403.543 261.574 409.167 262.667C414.577 263.717 419.383 262.69 423.579 259.579C427.78 256.473 430.423 252.108 431.516 246.485L468.058 58.7907C469.108 53.3885 468.015 48.3497 464.767 43.6815Z" fill="#56FFF5"/>
<path d="M57.5131 282.475C47.0487 282.475 38.565 290.945 38.565 301.397C38.565 311.848 47.0487 320.323 57.5131 320.323V320.325H276.919L269.553 282.476H57.5131V282.475Z" fill="#56FFF5"/>
<path d="M411.35 282.475H285.268L292.634 320.324H411.35C421.814 320.324 430.297 311.849 430.297 301.398C430.297 290.946 421.814 282.475 411.35 282.475Z" fill="#8A2BE2"/>
</g>
<defs>
<clipPath id="clip0_209_313">
<rect width="468" height="320" fill="white"/>
</clipPath>
</defs>
</svg>
